<svg width="22" height="22" viewBox="0 0 22 22" fill="none" xmlns="http://www.w3.org/2000/svg">
<path fill-rule="evenodd" clip-rule="evenodd" d="M13.2917 5.04168C13.2917 3.26978 11.8553 1.83337 10.0834 1.83337L9.90736 1.8381C8.21731 1.9295 6.87505 3.32886 6.87505 5.04168C6.87505 6.81362 8.3115 8.25003 10.0834 8.25003L10.2594 8.24526C11.9495 8.15391 13.2917 6.75454 13.2917 5.04168ZM11.0001 15.5834C11.0001 16.5851 11.2679 17.5244 11.7358 18.3334H3.66675V15.0334C3.66675 12.3679 5.71498 10.1945 8.28086 10.0875L8.4792 10.0834H11.6876C12.5226 10.0834 13.308 10.3021 13.9925 10.687C12.2158 11.5987 11.0001 13.4491 11.0001 15.5834ZM13.806 19.2914L16.5001 17.6459L19.1941 19.2914L18.4616 16.2207L20.8591 14.167L17.7124 13.9148L16.5001 11L15.2877 13.9148L12.141 14.167L14.5385 16.2207L13.806 19.2914Z" fill="#2D3139"/>
</svg>
