<svg width="30" height="30" viewBox="0 0 30 30" fill="none" xmlns="http://www.w3.org/2000/svg">
<path d="M25 15C25 20.5228 20.5228 25 15 25C9.47715 25 5 20.5228 5 15C5 9.47715 9.47715 5 15 5C20.5228 5 25 9.47715 25 15Z" fill="#EE5D50"/>
<path d="M15 16.4999C14.7875 16.4999 14.6095 16.4279 14.466 16.2839C14.3225 16.1399 14.2505 15.9619 14.25 15.7499V10.5C14.25 10.2875 14.322 10.1095 14.466 9.966C14.61 9.8225 14.788 9.7505 15 9.75C15.212 9.7495 15.3902 9.8215 15.5347 9.966C15.6792 10.1105 15.751 10.2885 15.75 10.5V15.7499C15.75 15.9624 15.678 16.1406 15.534 16.2846C15.39 16.4286 15.212 16.5004 15 16.4999ZM15 20.2498C14.7875 20.2498 14.6095 20.1778 14.466 20.0338C14.3225 19.8898 14.2505 19.7118 14.25 19.4998C14.2495 19.2878 14.3215 19.1098 14.466 18.9658C14.6105 18.8218 14.7885 18.7498 15 18.7498C15.2115 18.7498 15.3897 18.8218 15.5347 18.9658C15.6797 19.1098 15.7515 19.2878 15.75 19.4998C15.7485 19.7118 15.6765 19.8901 15.534 20.0346C15.3915 20.1791 15.2135 20.2508 15 20.2498Z" fill="white"/>
</svg>
