<svg width="22" height="22" viewBox="0 0 22 22" fill="none" xmlns="http://www.w3.org/2000/svg">
<path d="M6.63659 1.83337H4.89492C2.88742 1.83337 1.83325 2.88754 1.83325 4.88587V6.62754C1.83325 8.62587 2.88742 9.68004 4.88575 9.68004H6.62742C8.62575 9.68004 9.67992 8.62587 9.67992 6.62754V4.88587C9.68909 2.88754 8.63492 1.83337 6.63659 1.83337Z" fill="#BBC1C8"/>
<path opacity="0.5" d="M17.1145 1.83337H15.3728C13.3745 1.83337 12.3203 2.88754 12.3203 4.88587V6.62754C12.3203 8.62587 13.3745 9.68004 15.3728 9.68004H17.1145C19.1128 9.68004 20.167 8.62587 20.167 6.62754V4.88587C20.167 2.88754 19.1128 1.83337 17.1145 1.83337Z" fill="#BBC1C8"/>
<path d="M17.1145 12.3105H15.3728C13.3745 12.3105 12.3203 13.3647 12.3203 15.363V17.1047C12.3203 19.103 13.3745 20.1572 15.3728 20.1572H17.1145C19.1128 20.1572 20.167 19.103 20.167 17.1047V15.363C20.167 13.3647 19.1128 12.3105 17.1145 12.3105Z" fill="#BBC1C8"/>
<path d="M6.63659 12.3105H4.89492C2.88742 12.3105 1.83325 13.3647 1.83325 15.363V17.1047C1.83325 19.1122 2.88742 20.1664 4.88575 20.1664H6.62742C8.62575 20.1664 9.67992 19.1122 9.67992 17.1139V15.3722C9.68909 13.3647 8.63492 12.3105 6.63659 12.3105Z" fill="#BBC1C8"/>
</svg>
