<svg width="408" height="58" viewBox="0 0 408 58" fill="none" xmlns="http://www.w3.org/2000/svg">
<path fill-rule="evenodd" clip-rule="evenodd" d="M4.79798 0C7.44783 0 9.59596 2.14813 9.59596 4.79798V47.1801H34.3855C37.0354 47.1801 39.1835 49.3283 39.1835 51.9781C39.1835 54.628 37.0354 56.7761 34.3855 56.7761H6.39731C2.86417 56.7761 0 53.9119 0 50.3788V4.79798C0 2.14813 2.14813 0 4.79798 0Z" fill="#17191D"/>
<path fill-rule="evenodd" clip-rule="evenodd" d="M51.9816 0C54.6314 0 56.7796 2.14813 56.7796 4.79798V52.7778C56.7796 55.4276 54.6314 57.5758 51.9816 57.5758C49.3317 57.5758 47.1836 55.4276 47.1836 52.7778V4.79798C47.1836 2.14813 49.3317 0 51.9816 0Z" fill="#17191D"/>
<path fill-rule="evenodd" clip-rule="evenodd" d="M262.306 9.59596C251.707 9.59596 243.115 18.1885 243.115 28.7879C243.115 39.3873 251.707 47.9798 262.306 47.9798C272.906 47.9798 281.498 39.3873 281.498 28.7879C281.498 18.1885 272.906 9.59596 262.306 9.59596ZM233.519 28.7879C233.519 12.8888 246.407 0 262.306 0C278.206 0 291.094 12.8888 291.094 28.7879C291.094 44.687 278.206 57.5758 262.306 57.5758C246.407 57.5758 233.519 44.687 233.519 28.7879Z" fill="#17191D"/>
<path fill-rule="evenodd" clip-rule="evenodd" d="M378.264 9.59596C367.665 9.59596 359.072 18.1885 359.072 28.7879C359.072 39.3873 367.665 47.9798 378.264 47.9798C388.864 47.9798 397.456 39.3873 397.456 28.7879C397.456 18.1885 388.864 9.59596 378.264 9.59596ZM349.476 28.7879C349.476 12.8888 362.365 0 378.264 0C394.163 0 407.052 12.8888 407.052 28.7879C407.052 44.687 394.163 57.5758 378.264 57.5758C362.365 57.5758 349.476 44.687 349.476 28.7879Z" fill="#17191D"/>
<path fill-rule="evenodd" clip-rule="evenodd" d="M299.094 6.79798C299.094 4.14813 301.242 2 303.892 2H336.678C339.328 2 341.476 4.14813 341.476 6.79798C341.476 9.44783 339.328 11.596 336.678 11.596H325.083V53.1785C325.083 55.8283 322.935 57.9764 320.285 57.9764C317.635 57.9764 315.487 55.8283 315.487 53.1785V11.596H303.892C301.242 11.596 299.094 9.44783 299.094 6.79798Z" fill="#17191D"/>
<path fill-rule="evenodd" clip-rule="evenodd" d="M87.1701 11.596C80.1038 11.596 74.3755 17.3243 74.3755 24.3906V53.1785C74.3755 55.8283 72.2274 57.9764 69.5775 57.9764C66.9277 57.9764 64.7795 55.8283 64.7795 53.1785V24.3906C64.7795 12.0246 74.8041 2 87.1701 2H88.7694C101.135 2 111.16 12.0246 111.16 24.3906V53.1785C111.16 55.8283 109.012 57.9764 106.362 57.9764C103.712 57.9764 101.564 55.8283 101.564 53.1785V24.3906C101.564 17.3243 95.8357 11.596 88.7694 11.596H87.1701Z" fill="#17191D"/>
<path fill-rule="evenodd" clip-rule="evenodd" d="M119.16 9.39731C119.16 5.86417 122.024 3 125.557 3H151.946C154.596 3 156.744 5.14813 156.744 7.79798C156.744 10.4478 154.596 12.596 151.946 12.596H128.756V24.9907H147.148C149.798 24.9907 151.946 27.1389 151.946 29.7887C151.946 32.4386 149.798 34.5867 147.148 34.5867H128.756V46.9815H151.946C154.596 46.9815 156.744 49.1296 156.744 51.7795C156.744 54.4293 154.596 56.5774 151.946 56.5774H125.557C122.024 56.5774 119.16 53.7133 119.16 50.1801V9.39731Z" fill="#17191D"/>
<path fill-rule="evenodd" clip-rule="evenodd" d="M202.56 2.68714C213.687 -0.49199 224.799 7.75289 224.983 19.3236L225.518 53.0194C225.56 55.6689 223.446 57.8509 220.797 57.8929C218.147 57.935 215.965 55.8212 215.923 53.1717L215.388 19.4759C215.305 14.2165 210.254 10.4688 205.196 11.9139L199.529 13.5328V53.0955C199.529 55.7454 197.381 57.8935 194.732 57.8935C192.082 57.8935 189.934 55.7454 189.934 53.0955V13.5328L184.534 11.99C179.425 10.5305 174.34 14.3662 174.34 19.679V53.0955C174.34 55.7454 172.192 57.8935 169.542 57.8935C166.892 57.8935 164.744 55.7454 164.744 53.0955V19.679C164.744 7.9908 175.931 -0.447724 187.17 2.76326L194.732 4.92375L202.56 2.68714Z" fill="#17191D"/>
</svg>
